# Blender 3.5.1
# www.blender.org
mtllib surface3.mtl
o surface
v 4.991765 0.241444 -1.897807
v 4.991765 -0.005134 -1.897807
v -4.991765 -0.005134 -1.897807
v -4.991765 0.241444 -1.897807
v 5.000000 0.243154 -1.886274
v 5.000000 -0.006844 -1.886274
v -5.000000 -0.006844 -1.886274
v -5.000000 0.243154 -1.886274
v 5.000000 -0.006845 -11.886273
v -5.000000 -0.006845 -11.886273
v -5.000000 0.243153 -11.886273
v 5.000000 0.243153 -11.886273
v 4.991765 0.241444 -1.887807
v 4.991765 -0.005134 -1.887807
v -4.991765 -0.005134 -1.887807
v -4.991765 0.241444 -1.887807
v 4.994226 0.237381 -1.892048
v 4.994226 -0.001071 -1.892048
v -4.994226 -0.001071 -1.892048
v -4.994226 0.237381 -1.892048
v 4.994226 -0.001072 -11.880500
v -4.994226 -0.001072 -11.880500
v -4.994226 0.237380 -11.880500
v 4.994226 0.237380 -11.880500
vn -0.0000 -0.0000 -1.0000
vn -0.0000 1.0000 -0.0000
vn 1.0000 -0.0000 -0.0000
vn -0.0000 -1.0000 -0.0000
vn -0.0000 -0.0000 1.0000
vn -1.0000 -0.0000 -0.0000
vt 0.375000 0.750000
vt 0.375000 0.750000
vt 0.125000 0.750000
vt 0.125000 0.750000
vt 0.375000 0.750000
vt 0.375000 0.750000
vt 0.125000 0.750000
vt 0.125000 0.750000
vt 0.375000 0.625000
vt 0.125000 0.625000
vt 0.125000 0.625000
vt 0.375000 0.625000
vt 0.375000 0.750000
vt 0.375000 0.750000
vt 0.125000 0.750000
vt 0.125000 0.750000
vt 0.375000 0.750000
vt 0.375000 0.750000
vt 0.125000 0.750000
vt 0.125000 0.750000
vt 0.375000 0.625000
vt 0.125000 0.625000
vt 0.125000 0.625000
vt 0.375000 0.625000
s 0
usemtl Material.002
f 2/2/1 3/3/1 4/4/1 1/1/1
f 11/11/2 8/8/2 5/5/2 12/12/2
f 9/9/3 12/12/3 5/5/3 6/6/3
f 10/10/4 9/9/4 6/6/4 7/7/4
f 6/6/5 5/5/5 8/8/5 7/7/5
f 7/7/6 8/8/6 11/11/6 10/10/6
f 10/10/1 11/11/1 12/12/1 9/9/1
f 14/14/5 13/13/5 16/16/5 15/15/5
f 23/23/4 24/24/4 17/17/4 20/20/4
f 21/21/6 18/18/6 17/17/6 24/24/6
f 22/22/2 19/19/2 18/18/2 21/21/2
f 18/18/1 19/19/1 20/20/1 17/17/1
f 19/19/3 22/22/3 23/23/3 20/20/3
f 22/22/5 21/21/5 24/24/5 23/23/5
f 4/4/6 3/3/6 15/15/6 16/16/6
f 2/2/3 1/1/3 13/13/3 14/14/3
f 3/3/4 2/2/4 14/14/4 15/15/4
f 1/1/2 4/4/2 16/16/2 13/13/2
